<svg id="svg" version="1.1" xmlns="http://www.w3.org/2000/svg" xmlns:xlink="http://www.w3.org/1999/xlink" width="400" height="400" viewBox="0, 0, 400,400"><g id="svgg"><path id="path0" d="M111.600 4.000 C 111.600 4.220,111.060 4.400,110.400 4.400 C 109.740 4.400,109.200 4.580,109.200 4.800 C 109.200 5.020,108.660 5.200,108.000 5.200 C 107.340 5.200,106.800 5.380,106.800 5.600 C 106.800 5.820,106.440 6.000,106.000 6.000 C 105.560 6.000,105.200 6.180,105.200 6.400 C 105.200 6.620,104.840 6.800,104.400 6.800 C 103.960 6.800,103.600 6.980,103.600 7.200 C 103.600 7.420,103.240 7.600,102.800 7.600 C 102.360 7.600,102.000 7.780,102.000 8.000 C 102.000 8.220,101.727 8.400,101.394 8.400 C 100.656 8.400,94.800 14.177,94.800 14.905 C 94.800 15.190,94.440 15.683,94.000 16.000 C 93.560 16.317,93.200 16.897,93.200 17.288 C 93.200 17.680,93.020 18.000,92.800 18.000 C 92.580 18.000,92.400 18.360,92.400 18.800 C 92.400 19.240,92.220 19.600,92.000 19.600 C 91.780 19.600,91.600 20.140,91.600 20.800 C 91.600 21.460,91.420 22.000,91.200 22.000 C 90.980 22.000,90.800 22.540,90.800 23.200 C 90.800 23.860,90.620 24.400,90.400 24.400 C 90.178 24.400,90.000 25.467,90.000 26.800 C 90.000 28.133,89.822 29.200,89.600 29.200 C 89.344 29.200,89.200 32.800,89.200 39.200 L 89.200 49.200 74.400 49.200 C 64.800 49.200,59.600 49.341,59.600 49.600 C 59.600 49.820,58.700 50.000,57.600 50.000 C 56.500 50.000,55.600 50.180,55.600 50.400 C 55.600 50.620,55.060 50.800,54.400 50.800 C 53.740 50.800,53.200 50.980,53.200 51.200 C 53.200 51.420,52.840 51.600,52.400 51.600 C 51.960 51.600,51.600 51.780,51.600 52.000 C 51.600 52.220,51.240 52.400,50.800 52.400 C 50.360 52.400,50.000 52.580,50.000 52.800 C 50.000 53.020,49.712 53.200,49.360 53.200 C 49.009 53.200,48.217 53.740,47.600 54.400 C 46.983 55.060,46.268 55.600,46.011 55.600 C 45.419 55.600,44.400 56.602,44.400 57.185 C 44.400 57.851,41.715 60.400,41.013 60.400 C 40.667 60.400,40.400 60.748,40.400 61.200 C 40.400 61.640,40.220 62.000,40.000 62.000 C 39.780 62.000,39.600 62.360,39.600 62.800 C 39.600 63.240,39.420 63.600,39.200 63.600 C 38.980 63.600,38.800 63.960,38.800 64.400 C 38.800 64.840,38.620 65.200,38.400 65.200 C 38.180 65.200,38.000 65.560,38.000 66.000 C 38.000 66.440,37.820 66.800,37.600 66.800 C 37.380 66.800,37.200 67.340,37.200 68.000 C 37.200 68.660,37.020 69.200,36.800 69.200 C 36.571 69.200,36.400 70.400,36.400 72.000 C 36.400 73.600,36.229 74.800,36.000 74.800 C 35.734 74.800,35.600 124.800,35.600 224.000 C 35.600 323.200,35.734 373.200,36.000 373.200 C 36.222 373.200,36.400 374.267,36.400 375.600 C 36.400 376.933,36.578 378.000,36.800 378.000 C 37.020 378.000,37.200 378.360,37.200 378.800 C 37.200 379.240,37.380 379.600,37.600 379.600 C 37.820 379.600,38.000 379.960,38.000 380.400 C 38.000 380.840,38.180 381.200,38.400 381.200 C 38.620 381.200,38.800 381.560,38.800 382.000 C 38.800 382.440,38.980 382.800,39.200 382.800 C 39.420 382.800,39.600 383.262,39.600 383.826 C 39.600 384.531,40.226 385.462,41.600 386.800 C 42.700 387.871,43.600 388.948,43.600 389.192 C 43.600 389.812,45.451 391.600,46.094 391.600 C 46.385 391.600,46.883 391.960,47.200 392.400 C 47.517 392.840,48.057 393.200,48.400 393.200 C 48.743 393.200,49.283 393.560,49.600 394.000 C 49.918 394.441,50.635 394.800,51.200 394.800 C 51.765 394.800,52.482 395.159,52.800 395.600 C 53.202 396.157,53.835 396.400,54.888 396.400 C 55.720 396.400,56.400 396.580,56.400 396.800 C 56.400 397.020,57.300 397.200,58.400 397.200 C 59.500 397.200,60.400 397.380,60.400 397.600 C 60.400 397.866,98.400 398.000,173.600 398.000 C 248.800 398.000,286.800 397.866,286.800 397.600 C 286.800 397.380,287.700 397.200,288.800 397.200 C 289.900 397.200,290.800 397.020,290.800 396.800 C 290.800 396.580,291.160 396.400,291.600 396.400 C 292.040 396.400,292.400 396.220,292.400 396.000 C 292.400 395.780,292.940 395.600,293.600 395.600 C 294.260 395.600,294.800 395.420,294.800 395.200 C 294.800 394.980,295.088 394.800,295.440 394.800 C 295.791 394.800,296.583 394.260,297.200 393.600 C 297.817 392.940,298.609 392.400,298.960 392.400 C 299.312 392.400,299.600 392.220,299.600 392.000 C 299.600 391.780,299.883 391.600,300.229 391.600 C 300.962 391.600,302.000 390.661,302.000 389.997 C 302.000 389.744,302.720 388.846,303.600 388.000 C 304.480 387.154,305.200 386.218,305.200 385.920 C 305.200 385.621,305.560 385.117,306.000 384.800 C 306.440 384.483,306.800 383.903,306.800 383.512 C 306.800 383.120,306.980 382.800,307.200 382.800 C 307.420 382.800,307.600 382.440,307.600 382.000 C 307.600 381.560,307.780 381.200,308.000 381.200 C 308.220 381.200,308.400 380.840,308.400 380.400 C 308.400 379.960,308.580 379.600,308.800 379.600 C 309.020 379.600,309.200 379.240,309.200 378.800 C 309.200 378.360,309.380 378.000,309.600 378.000 C 309.820 378.000,310.000 377.100,310.000 376.000 C 310.000 374.900,310.180 374.000,310.400 374.000 C 311.031 374.000,310.933 359.729,310.300 359.433 C 309.900 359.247,309.900 359.153,310.300 358.967 C 310.635 358.810,310.800 357.743,310.800 355.738 C 310.800 351.274,309.524 351.600,326.971 351.600 C 336.724 351.600,342.000 351.460,342.000 351.200 C 342.000 350.980,342.720 350.800,343.600 350.800 C 344.480 350.800,345.200 350.620,345.200 350.400 C 345.200 350.180,345.560 350.000,346.000 350.000 C 346.440 350.000,346.800 349.820,346.800 349.600 C 346.800 349.380,347.160 349.200,347.600 349.200 C 348.040 349.200,348.400 349.020,348.400 348.800 C 348.400 348.580,348.760 348.400,349.200 348.400 C 349.640 348.400,350.000 348.220,350.000 348.000 C 350.000 347.780,350.320 347.600,350.712 347.600 C 351.103 347.600,351.683 347.240,352.000 346.800 C 352.317 346.360,352.811 346.000,353.097 346.000 C 353.383 346.000,354.603 345.014,355.809 343.809 C 357.014 342.603,358.000 341.383,358.000 341.097 C 358.000 340.811,358.360 340.317,358.800 340.000 C 359.240 339.683,359.600 339.143,359.600 338.800 C 359.600 338.457,359.960 337.917,360.400 337.600 C 360.840 337.283,361.200 336.703,361.200 336.312 C 361.200 335.920,361.380 335.600,361.600 335.600 C 361.820 335.600,362.000 335.240,362.000 334.800 C 362.000 334.360,362.180 334.000,362.400 334.000 C 362.620 334.000,362.800 333.280,362.800 332.400 C 362.800 331.520,362.980 330.800,363.200 330.800 C 363.420 330.800,363.600 329.900,363.600 328.800 C 363.600 327.700,363.780 326.800,364.000 326.800 C 364.266 326.800,364.400 276.667,364.400 177.200 C 364.400 77.733,364.266 27.600,364.000 27.600 C 363.780 27.600,363.600 26.700,363.600 25.600 C 363.600 24.500,363.420 23.600,363.200 23.600 C 362.980 23.600,362.800 23.060,362.800 22.400 C 362.800 21.740,362.620 21.200,362.400 21.200 C 362.180 21.200,362.000 20.660,362.000 20.000 C 362.000 19.340,361.820 18.800,361.600 18.800 C 361.380 18.800,361.200 18.512,361.200 18.160 C 361.200 17.809,360.660 17.017,360.000 16.400 C 359.340 15.783,358.800 15.078,358.800 14.833 C 358.800 14.208,352.927 8.400,352.295 8.400 C 352.010 8.400,351.517 8.040,351.200 7.600 C 350.883 7.160,350.303 6.800,349.912 6.800 C 349.520 6.800,349.200 6.620,349.200 6.400 C 349.200 6.180,348.840 6.000,348.400 6.000 C 347.960 6.000,347.600 5.820,347.600 5.600 C 347.600 5.380,347.240 5.200,346.800 5.200 C 346.360 5.200,346.000 5.020,346.000 4.800 C 346.000 4.580,345.280 4.400,344.400 4.400 C 343.520 4.400,342.800 4.220,342.800 4.000 C 342.800 3.734,304.000 3.600,227.200 3.600 C 150.400 3.600,111.600 3.734,111.600 4.000 M338.400 27.600 C 339.246 28.480,340.221 29.200,340.569 29.200 C 341.143 29.200,341.200 42.644,341.200 177.200 C 341.200 275.600,341.066 325.200,340.800 325.200 C 340.580 325.200,340.400 325.483,340.400 325.829 C 340.400 326.600,339.449 327.600,338.717 327.600 C 338.420 327.600,337.917 327.960,337.600 328.400 C 336.944 329.310,117.200 329.709,117.200 328.800 C 117.200 328.580,116.737 328.400,116.171 328.400 C 115.014 328.400,114.000 327.573,114.000 326.629 C 114.000 326.283,113.820 326.000,113.600 326.000 C 113.380 326.000,113.200 325.640,113.200 325.200 C 113.200 324.760,113.020 324.400,112.800 324.400 C 112.534 324.400,112.400 275.067,112.400 177.200 C 112.400 79.333,112.534 30.000,112.800 30.000 C 113.020 30.000,113.200 29.722,113.200 29.382 C 113.200 28.224,115.066 26.800,116.582 26.800 C 117.362 26.800,118.000 26.620,118.000 26.400 C 118.000 26.134,154.744 26.000,227.431 26.000 L 336.863 26.000 338.400 27.600 M89.429 72.971 C 90.084 73.627,90.194 74.800,89.600 74.800 C 89.334 74.800,89.200 106.533,89.200 169.200 C 89.200 231.867,89.334 263.600,89.600 263.600 C 89.857 263.600,90.000 267.600,90.000 274.800 C 90.000 282.000,89.857 286.000,89.600 286.000 C 89.380 286.000,89.200 286.360,89.200 286.800 C 89.200 287.240,89.380 287.600,89.600 287.600 C 89.859 287.600,90.000 292.533,90.000 301.600 C 90.000 310.667,89.859 315.600,89.600 315.600 C 89.380 315.600,89.200 315.960,89.200 316.400 C 89.200 316.840,89.380 317.200,89.600 317.200 C 89.849 317.200,90.000 319.467,90.000 323.200 C 90.000 326.933,90.151 329.200,90.400 329.200 C 90.620 329.200,90.800 329.920,90.800 330.800 C 90.800 331.680,90.980 332.400,91.200 332.400 C 91.420 332.400,91.600 332.760,91.600 333.200 C 91.600 333.640,91.780 334.000,92.000 334.000 C 92.220 334.000,92.400 334.540,92.400 335.200 C 92.400 335.860,92.580 336.400,92.800 336.400 C 93.020 336.400,93.200 336.720,93.200 337.112 C 93.200 337.503,93.560 338.083,94.000 338.400 C 94.440 338.717,94.800 339.210,94.800 339.495 C 94.800 340.170,100.630 346.000,101.305 346.000 C 101.590 346.000,102.083 346.360,102.400 346.800 C 102.717 347.240,103.297 347.600,103.688 347.600 C 104.080 347.600,104.400 347.780,104.400 348.000 C 104.400 348.220,104.760 348.400,105.200 348.400 C 105.640 348.400,106.000 348.580,106.000 348.800 C 106.000 349.020,106.360 349.200,106.800 349.200 C 107.240 349.200,107.600 349.380,107.600 349.600 C 107.600 349.820,108.140 350.000,108.800 350.000 C 109.460 350.000,110.000 350.180,110.000 350.400 C 110.000 350.622,111.067 350.800,112.400 350.800 C 113.733 350.800,114.800 350.978,114.800 351.200 C 114.800 351.465,143.867 351.600,201.200 351.600 L 287.600 351.600 287.600 352.800 C 287.600 353.460,287.420 354.000,287.200 354.000 C 286.980 354.000,286.800 354.360,286.800 354.800 C 286.800 355.240,286.980 355.600,287.200 355.600 C 287.420 355.600,287.600 355.960,287.600 356.400 C 287.600 356.840,287.420 357.200,287.200 357.200 C 286.978 357.200,286.800 358.267,286.800 359.600 C 286.800 360.933,286.978 362.000,287.200 362.000 C 287.442 362.000,287.600 363.733,287.600 366.400 C 287.600 370.533,287.552 370.800,286.800 370.800 C 286.207 370.800,286.000 371.067,286.000 371.829 C 286.000 372.970,285.176 374.000,284.262 374.000 C 283.935 374.000,283.562 374.225,283.433 374.500 C 283.247 374.900,283.153 374.900,282.967 374.500 C 282.691 373.909,279.600 373.817,279.600 374.400 C 279.600 374.666,243.067 374.800,170.800 374.800 C 72.158 374.800,62.000 374.741,62.000 374.171 C 62.000 373.363,61.037 372.400,60.229 372.400 C 59.867 372.400,59.600 372.061,59.600 371.600 C 59.600 371.160,59.420 370.800,59.200 370.800 C 58.944 370.800,58.800 367.200,58.800 360.800 C 58.800 354.400,58.944 350.800,59.200 350.800 C 59.420 350.800,59.600 350.440,59.600 350.000 C 59.600 349.560,59.420 349.200,59.200 349.200 C 58.934 349.200,58.800 303.467,58.800 212.800 C 58.800 122.133,58.934 76.400,59.200 76.400 C 59.420 76.400,59.600 76.125,59.600 75.789 C 59.600 75.452,60.185 74.565,60.900 73.816 L 62.200 72.455 75.529 72.427 C 86.573 72.405,88.955 72.498,89.429 72.971 M143.600 73.600 C 143.600 73.820,142.700 74.000,141.600 74.000 C 140.500 74.000,139.600 74.180,139.600 74.400 C 139.600 74.620,139.280 74.800,138.888 74.800 C 138.497 74.800,137.917 75.160,137.600 75.600 C 137.283 76.040,136.703 76.400,136.312 76.400 C 135.896 76.400,135.600 76.696,135.600 77.112 C 135.600 77.503,135.240 78.083,134.800 78.400 C 134.330 78.739,134.000 79.435,134.000 80.088 C 134.000 80.700,133.820 81.200,133.600 81.200 C 133.367 81.200,133.200 82.533,133.200 84.400 C 133.200 86.267,133.367 87.600,133.600 87.600 C 133.820 87.600,134.000 88.100,134.000 88.712 C 134.000 89.365,134.330 90.061,134.800 90.400 C 135.240 90.717,135.600 91.213,135.600 91.502 C 135.600 92.439,138.310 94.800,139.387 94.800 C 139.944 94.800,140.400 94.980,140.400 95.200 C 140.400 95.465,169.600 95.600,227.200 95.600 C 284.800 95.600,314.000 95.465,314.000 95.200 C 314.000 94.980,314.275 94.800,314.611 94.800 C 315.404 94.800,318.800 91.404,318.800 90.611 C 318.800 90.275,318.980 90.000,319.200 90.000 C 319.420 90.000,319.600 89.640,319.600 89.200 C 319.600 88.760,319.780 88.400,320.000 88.400 C 320.237 88.400,320.400 86.933,320.400 84.800 C 320.400 82.667,320.237 81.200,320.000 81.200 C 319.780 81.200,319.600 80.700,319.600 80.088 C 319.600 79.435,319.270 78.739,318.800 78.400 C 318.360 78.083,318.000 77.503,318.000 77.112 C 318.000 76.696,317.704 76.400,317.288 76.400 C 316.897 76.400,316.317 76.040,316.000 75.600 C 315.683 75.160,315.103 74.800,314.712 74.800 C 314.320 74.800,314.000 74.620,314.000 74.400 C 314.000 74.180,313.280 74.000,312.400 74.000 C 311.520 74.000,310.800 73.820,310.800 73.600 C 310.800 73.335,282.667 73.200,227.200 73.200 C 171.733 73.200,143.600 73.335,143.600 73.600 M142.000 127.200 C 142.000 127.420,141.460 127.600,140.800 127.600 C 140.140 127.600,139.600 127.780,139.600 128.000 C 139.600 128.220,139.325 128.400,138.989 128.400 C 138.196 128.400,134.800 131.796,134.800 132.589 C 134.800 132.925,134.620 133.200,134.400 133.200 C 134.180 133.200,134.000 133.560,134.000 134.000 C 134.000 134.440,133.820 134.800,133.600 134.800 C 133.367 134.800,133.200 136.133,133.200 138.000 C 133.200 139.867,133.367 141.200,133.600 141.200 C 133.820 141.200,134.000 141.700,134.000 142.312 C 134.000 142.965,134.330 143.661,134.800 144.000 C 135.240 144.317,135.600 144.897,135.600 145.288 C 135.600 145.680,135.883 146.000,136.229 146.000 C 137.037 146.000,138.000 146.963,138.000 147.771 C 138.000 148.203,138.376 148.400,139.200 148.400 C 139.860 148.400,140.400 148.580,140.400 148.800 C 140.400 149.065,169.467 149.200,226.800 149.200 C 284.133 149.200,313.200 149.065,313.200 148.800 C 313.200 148.580,313.520 148.400,313.912 148.400 C 314.303 148.400,314.883 148.040,315.200 147.600 C 315.517 147.160,316.015 146.800,316.306 146.800 C 317.205 146.800,318.800 144.892,318.800 143.818 C 318.800 143.258,318.980 142.800,319.200 142.800 C 319.420 142.800,319.600 142.440,319.600 142.000 C 319.600 141.560,319.780 141.200,320.000 141.200 C 320.229 141.200,320.400 140.000,320.400 138.400 C 320.400 136.800,320.229 135.600,320.000 135.600 C 319.780 135.600,319.600 135.060,319.600 134.400 C 319.600 133.740,319.420 133.200,319.200 133.200 C 318.980 133.200,318.800 132.925,318.800 132.589 C 318.800 131.796,315.404 128.400,314.611 128.400 C 314.275 128.400,314.000 128.220,314.000 128.000 C 314.000 127.780,313.100 127.600,312.000 127.600 C 310.900 127.600,310.000 127.420,310.000 127.200 C 310.000 126.952,307.867 126.800,304.400 126.800 C 300.933 126.800,298.800 126.952,298.800 127.200 C 298.800 127.420,298.440 127.600,298.000 127.600 C 297.560 127.600,297.200 127.420,297.200 127.200 C 297.200 126.936,283.200 126.800,256.000 126.800 C 228.800 126.800,214.800 126.936,214.800 127.200 C 214.800 127.453,212.000 127.600,207.200 127.600 C 202.400 127.600,199.600 127.453,199.600 127.200 C 199.600 126.937,190.667 126.800,173.600 126.800 C 156.533 126.800,147.600 126.937,147.600 127.200 C 147.600 127.420,146.700 127.600,145.600 127.600 C 144.500 127.600,143.600 127.420,143.600 127.200 C 143.600 126.980,143.240 126.800,142.800 126.800 C 142.360 126.800,142.000 126.980,142.000 127.200 M141.200 180.800 C 141.200 181.020,140.840 181.200,140.400 181.200 C 139.960 181.200,139.600 181.380,139.600 181.600 C 139.600 181.820,139.325 182.000,138.989 182.000 C 138.196 182.000,134.800 185.396,134.800 186.189 C 134.800 186.525,134.620 186.800,134.400 186.800 C 134.180 186.800,134.000 187.160,134.000 187.600 C 134.000 188.040,133.820 188.400,133.600 188.400 C 133.367 188.400,133.200 189.733,133.200 191.600 C 133.200 193.467,133.367 194.800,133.600 194.800 C 133.820 194.800,134.000 195.254,134.000 195.809 C 134.000 196.940,137.944 201.200,138.991 201.200 C 139.326 201.200,139.600 201.380,139.600 201.600 C 139.600 201.820,140.320 202.000,141.200 202.000 C 142.080 202.000,142.800 202.180,142.800 202.400 C 142.800 202.665,171.200 202.800,227.200 202.800 C 283.200 202.800,311.600 202.665,311.600 202.400 C 311.600 202.180,312.320 202.000,313.200 202.000 C 314.080 202.000,314.800 201.820,314.800 201.600 C 314.800 201.380,315.076 201.200,315.413 201.200 C 316.421 201.200,318.800 198.540,318.800 197.413 C 318.800 196.856,318.980 196.400,319.200 196.400 C 319.420 196.400,319.600 195.680,319.600 194.800 C 319.600 193.920,319.780 193.200,320.000 193.200 C 320.220 193.200,320.400 192.300,320.400 191.200 C 320.400 190.100,320.220 189.200,320.000 189.200 C 319.780 189.200,319.600 188.660,319.600 188.000 C 319.600 187.340,319.420 186.800,319.200 186.800 C 318.980 186.800,318.800 186.440,318.800 186.000 C 318.800 185.560,318.620 185.200,318.400 185.200 C 318.180 185.200,318.000 184.922,318.000 184.582 C 318.000 183.610,316.141 182.000,315.018 182.000 C 314.458 182.000,314.000 181.820,314.000 181.600 C 314.000 181.380,313.640 181.200,313.200 181.200 C 312.760 181.200,312.400 181.020,312.400 180.800 C 312.400 180.535,283.600 180.400,226.800 180.400 C 170.000 180.400,141.200 180.535,141.200 180.800 M141.200 234.400 C 141.200 234.620,140.840 234.800,140.400 234.800 C 139.960 234.800,139.600 234.980,139.600 235.200 C 139.600 235.420,139.137 235.600,138.571 235.600 C 137.457 235.600,136.400 236.419,136.400 237.283 C 136.400 237.580,136.040 238.083,135.600 238.400 C 135.160 238.717,134.800 239.297,134.800 239.688 C 134.800 240.080,134.620 240.400,134.400 240.400 C 134.180 240.400,134.000 240.940,134.000 241.600 C 134.000 242.260,133.820 242.800,133.600 242.800 C 133.371 242.800,133.200 244.000,133.200 245.600 C 133.200 247.200,133.371 248.400,133.600 248.400 C 133.820 248.400,134.000 248.760,134.000 249.200 C 134.000 249.640,134.180 250.000,134.400 250.000 C 134.620 250.000,134.800 250.275,134.800 250.611 C 134.800 251.404,138.196 254.800,138.989 254.800 C 139.325 254.800,139.600 254.980,139.600 255.200 C 139.600 255.420,139.960 255.600,140.400 255.600 C 140.840 255.600,141.200 255.780,141.200 256.000 C 141.200 256.220,141.560 256.400,142.000 256.400 C 142.440 256.400,142.800 256.220,142.800 256.000 C 142.800 255.780,143.520 255.600,144.400 255.600 C 145.280 255.600,146.000 255.780,146.000 256.000 C 146.000 256.264,161.067 256.400,190.400 256.400 C 219.733 256.400,234.800 256.264,234.800 256.000 C 234.800 255.763,236.267 255.600,238.400 255.600 C 240.533 255.600,242.000 255.763,242.000 256.000 C 242.000 256.259,246.800 256.400,255.600 256.400 C 264.400 256.400,269.200 256.259,269.200 256.000 C 269.200 255.740,274.933 255.600,285.600 255.600 C 296.267 255.600,302.000 255.740,302.000 256.000 C 302.000 256.242,303.733 256.400,306.400 256.400 C 309.067 256.400,310.800 256.242,310.800 256.000 C 310.800 255.780,311.700 255.600,312.800 255.600 C 313.900 255.600,314.800 255.420,314.800 255.200 C 314.800 254.980,315.078 254.800,315.418 254.800 C 316.218 254.800,318.000 253.018,318.000 252.218 C 318.000 251.878,318.180 251.600,318.400 251.600 C 318.620 251.600,318.800 251.280,318.800 250.888 C 318.800 250.497,319.160 249.917,319.600 249.600 C 320.304 249.093,320.400 248.565,320.400 245.200 C 320.400 241.835,320.304 241.307,319.600 240.800 C 319.160 240.483,318.800 239.903,318.800 239.512 C 318.800 239.120,318.620 238.800,318.400 238.800 C 318.180 238.800,318.000 238.522,318.000 238.182 C 318.000 237.382,316.218 235.600,315.418 235.600 C 315.078 235.600,314.800 235.420,314.800 235.200 C 314.800 234.980,314.260 234.800,313.600 234.800 C 312.940 234.800,312.400 234.620,312.400 234.400 C 312.400 234.135,283.600 234.000,226.800 234.000 C 170.000 234.000,141.200 234.135,141.200 234.400 " stroke="none" fill="#ccc4d4" fill-rule="evenodd"></path><path id="path1" d="" stroke="none" fill="#d0c4d4" fill-rule="evenodd"></path><path id="path2" d="" stroke="none" fill="#d0c4d4" fill-rule="evenodd"></path><path id="path3" d="" stroke="none" fill="#d0c4d4" fill-rule="evenodd"></path><path id="path4" d="" stroke="none" fill="#d0c4d4" fill-rule="evenodd"></path><path id="path5" d="" stroke="none" fill="#d0c4d4" fill-rule="evenodd"></path></g></svg>